<svg width="20" height="21" viewBox="0 0 20 21" fill="none"
    xmlns="http://www.w3.org/2000/svg">
    <path fill-rule="evenodd" clip-rule="evenodd" d="M17.6723 15.7555L10.9612 4.1333C10.8635 3.96492 10.7233 3.82516 10.5546 3.728C10.3859 3.63085 10.1947 3.57971 10 3.57971C9.80538 3.57971 9.61415 3.63085 9.44547 3.728C9.27679 3.82516 9.1366 3.96492 9.03893 4.1333L2.32782 15.7555C2.23023 15.9246 2.17888 16.1163 2.17896 16.3115C2.17903 16.5067 2.23051 16.6984 2.32823 16.8673C2.42594 17.0363 2.56644 17.1765 2.73558 17.2739C2.90471 17.3713 3.09653 17.4225 3.29171 17.4222H16.7084C16.9036 17.4225 17.0954 17.3713 17.2645 17.2739C17.4336 17.1765 17.5741 17.0363 17.6719 16.8673C17.7696 16.6984 17.8211 16.5067 17.8211 16.3115C17.8212 16.1163 17.7699 15.9246 17.6723 15.7555ZM3.29171 16.3111L10 4.68885L16.7084 16.3111H3.29171ZM10 13.2166C9.91062 13.2142 9.82167 13.2305 9.73891 13.2644C9.65616 13.2984 9.58142 13.3493 9.51949 13.4138C9.45663 13.4772 9.40744 13.5528 9.37495 13.6359C9.34246 13.7191 9.32737 13.808 9.3306 13.8972C9.32688 13.9877 9.34171 14.078 9.3742 14.1625C9.40668 14.2471 9.45613 14.3241 9.51949 14.3888C9.64845 14.5134 9.82074 14.5831 10 14.5831C10.1793 14.5831 10.3516 14.5134 10.4806 14.3888C10.5433 14.3248 10.5923 14.2487 10.6248 14.1651C10.6572 14.0816 10.6724 13.9923 10.6695 13.9027C10.6727 13.8135 10.6576 13.7246 10.6251 13.6415C10.5926 13.5584 10.5435 13.4828 10.4806 13.4194C10.4192 13.3538 10.3446 13.3019 10.2619 13.267C10.1791 13.232 10.0899 13.2149 10 13.2166ZM9.35668 8.45942C9.39037 8.38192 9.44131 8.31313 9.5056 8.25828H9.49726C9.63864 8.14836 9.81262 8.08868 9.99171 8.08868C10.1708 8.08868 10.3448 8.14836 10.4862 8.25828C10.5504 8.31313 10.6014 8.38192 10.6351 8.45942C10.6688 8.53691 10.6843 8.62108 10.6806 8.7055V8.8055L10.3362 12.3222C10.3315 12.4202 10.291 12.5132 10.2223 12.5833C10.1599 12.6421 10.0774 12.6748 9.99171 12.6748C9.90599 12.6748 9.82352 12.6421 9.76115 12.5833C9.69243 12.5132 9.6519 12.4202 9.64726 12.3222L9.31115 8.79717V8.7055C9.30741 8.62108 9.32298 8.53691 9.35668 8.45942Z" fill="#738192"/>
</svg>
