<?xml version="1.0" encoding="UTF-8"?>
<svg width="72px" height="61px" viewBox="0 0 72 61" version="1.1" xmlns="http://www.w3.org/2000/svg" xmlns:xlink="http://www.w3.org/1999/xlink">
    <!-- Generator: Sketch 49.3 (51167) - http://www.bohemiancoding.com/sketch -->
    <title>Broken</title>
    <desc>Created with Sketch.</desc>
    <defs></defs>
    <g id="Broken" stroke="none" stroke-width="1" fill="none" fill-rule="evenodd">
        <g id="Group-38-Copy-2" transform="translate(18.500000, 26.500000) rotate(-7.000000) translate(-18.500000, -26.500000) translate(5.000000, 3.000000)">
            <path d="M15.3140618,7 C13.8061109,7 12.2433006,7.25142857 11.1783403,7.935 C9.45095142,9.04285714 8.94555816,11.2064286 9.00453214,13.1985714 C9.05527719,14.9214286 9.49895349,16.7714286 10.6777473,18.0442857 C11.8023673,19.2578571 14.1146957,19.8035714 15.6912209,19.8035714 C15.7625383,19.8035714 15.8379701,19.8571429 15.8379701,19.9564286 L15.8379701,21.695 C15.8379701,21.8664286 15.9662042,22 16.1307828,22 C16.1403832,22 16.1492978,21.9978571 16.1582125,21.9971429 C16.2206152,21.9914286 16.2754747,21.9671429 16.3193623,21.9292857 C17.1141395,21.2221429 17.9082309,20.5021429 18.6748926,19.7621429 C19.4100101,19.0521429 20.2425032,18.3228571 20.8171566,17.4728571 C22.0295518,15.68 22.2092167,13.145 21.8073708,11.0435714 C21.4206112,9.02142857 20.0415802,7.705 18.1084682,7.28571429 C17.3130052,7.11357143 16.3262198,7 15.3140618,7" id="Fill-20" fill="#738192" opacity="0.49"></path>
            <path d="M21.6611905,0 L4,0 C1.790861,4.05812251e-16 -2.705415e-16,1.790861 0,4 L0,43 C4.19476067e-15,45.209139 1.790861,47 4,47 L19.9620501,47" id="Path-20" stroke="#738192" stroke-width="3" opacity="0.585880888"></path>
            <path d="M6,40.8134766 L6,34.8681641 L19.6660156,24.4638672 C21.8886719,22.5120443 23,22.5120443 23,24.4638672 C23,26.4156901 21.8886719,28.1103516 19.6660156,29.5478516 L23,31.9067383 L19.6660156,34.8681641 L26.6445312,40.8134766 L6,40.8134766 Z" id="Path-21" fill="#738192" opacity="0.49"></path>
        </g>
        <g id="Group-43-Copy" transform="translate(52.500000, 32.500000) rotate(4.000000) translate(-52.500000, -32.500000) translate(37.000000, 9.000000)">
            <path d="M30.6611905,0 L4,0 C1.790861,4.05812251e-16 -2.705415e-16,1.790861 0,4 L-8.8817842e-16,43 C-6.17636919e-16,45.209139 1.790861,47 4,47 L28.9620501,47" id="Path-20-Copy" stroke="#738192" stroke-width="3" opacity="0.585880888" transform="translate(15.330595, 23.500000) scale(-1, 1) translate(-15.330595, -23.500000) "></path>
            <path d="M4.15234375,24.1191406 L10.21875,13.8720703 C11.7591146,12.0947266 13.3704427,12.0947266 15.0527344,13.8720703 C16.735026,15.6494141 20.108724,19.7796224 25.1738281,26.2626953 L25.1738281,40.8134766 L0,40.8134766 L0,35.8652344 L4.15234375,32.5839844 L0,29.7109375 L4.15234375,24.1191406 Z" id="Path-22" fill="#738192" opacity="0.49"></path>
        </g>
    </g>
</svg>