<?xml version="1.0" encoding="UTF-8"?>
<svg width="15px" height="15px" viewBox="0 0 15 15" version="1.1" xmlns="http://www.w3.org/2000/svg" xmlns:xlink="http://www.w3.org/1999/xlink">
    <!-- Generator: Sketch 47.1 (45422) - http://www.bohemiancoding.com/sketch -->
    <title>Close</title>
    <desc>Created with Sketch.</desc>
    <defs>
        <path d="M9.42853506,7.34451607 L14.2664363,2.46940022 C14.489724,2.24611247 14.489724,1.91118084 14.2664363,1.68789309 L13.5221438,0.906385971 C13.2988561,0.683098222 12.9639244,0.683098222 12.7406367,0.906385971 L7.86552082,5.78150183 C7.71666232,5.93036033 7.49337457,5.93036033 7.34451607,5.78150183 L2.46940022,0.869171346 C2.24611247,0.645883597 1.91118084,0.645883597 1.68789309,0.869171346 L0.906385971,1.65067847 C0.683098222,1.87396622 0.683098222,2.20889784 0.906385971,2.43218559 L5.78150183,7.30730145 C5.93036033,7.45615995 5.93036033,7.6794477 5.78150183,7.8283062 L0.869171346,12.7406367 C0.645883597,12.9639244 0.645883597,13.2988561 0.869171346,13.5221438 L1.65067847,14.3036509 C1.87396622,14.5269387 2.20889784,14.5269387 2.43218559,14.3036509 L7.30730145,9.42853506 C7.45615995,9.27967657 7.6794477,9.27967657 7.8283062,9.42853506 L12.7034221,14.3036509 C12.9267098,14.5269387 13.2616414,14.5269387 13.4849292,14.3036509 L14.2664363,13.5221438 C14.489724,13.2988561 14.489724,12.9639244 14.2664363,12.7406367 L9.42853506,7.86552082 C9.27967657,7.71666232 9.27967657,7.49337457 9.42853506,7.34451607 L9.42853506,7.34451607 Z" id="path-1"></path>
    </defs>
    <g id="Builder-/-Setup---2" stroke="none" stroke-width="1" fill="none" fill-rule="evenodd" opacity="0.857846467">
        <g id="Close">
            <g id="Icon-/-Close-Copy-5">
                <mask id="mask-2" fill="white">
                    <use xlink:href="#path-1"></use>
                </mask>
                <use id="Mask" fill="white" xlink:href="#path-1"></use>
            </g>
        </g>
    </g>
</svg>