<?xml version="1.0" encoding="UTF-8"?>
<svg width="13px" height="14px" viewBox="0 0 13 14" version="1.1" xmlns="http://www.w3.org/2000/svg" xmlns:xlink="http://www.w3.org/1999/xlink">
  <g id="Builder-/-Setup---2" stroke="none" stroke-width="1" fill="none" fill-rule="evenodd">
      <g id="Edit" fill="#FFFFFF">
          <path d="M12.4776319,12.9433962 L0.522368069,12.9433962 C0.233324404,12.9433962 0,13.1793711 0,13.4716981 C0,13.7640252 0.233324404,14 0.522368069,14 L12.4776319,14 C12.7666756,14 13,13.7640252 13,13.4716981 C13,13.1793711 12.7666756,12.9433962 12.4776319,12.9433962 M1.07259577,8.78742138 L6.88132869,2.89157233 L8.37181891,4.40251572 L2.55612108,10.2877987 L1.07259577,10.2877987 L1.07259577,8.78742138 Z M8.47281007,1.27496855 L9.9702652,2.78943396 L9.11358157,3.65584906 L7.61960889,2.14490566 L8.47281007,1.27496855 Z M0.550227699,11.3444025 L2.77203322,11.3444025 C2.91133137,11.3444025 3.04366461,11.2880503 3.14117332,11.189434 L11.0776855,3.1627673 C11.1751942,3.06415094 11.2309135,2.92679245 11.2309135,2.78943396 C11.2309135,2.64855346 11.1751942,2.51471698 11.0776855,2.41610063 L8.84195017,0.154968553 C8.74444147,0.0563522013 8.61210822,0 8.47281007,0 C8.33351192,0 8.20117868,0.0563522013 8.10366997,0.154968553 L0.181087597,8.19572327 C0.083578891,8.29786164 0.0278596303,8.43169811 0.0278596303,8.5690566 L0.0278596303,10.8161006 C0.0278596303,11.1084277 0.261184034,11.3444025 0.550227699,11.3444025 L0.550227699,11.3444025 Z" id="7H"></path>
      </g>
  </g>
</svg>
