<?xml version="1.0" encoding="UTF-8"?>
<svg width="341px" height="368px" viewBox="0 0 341 368" version="1.1" xmlns="http://www.w3.org/2000/svg" xmlns:xlink="http://www.w3.org/1999/xlink">
    <!-- Generator: Sketch 47.1 (45422) - http://www.bohemiancoding.com/sketch -->
    <title>ItemDoc</title>
    <desc>Created with Sketch.</desc>
    <defs></defs>
    <g id="Page-1" stroke="none" stroke-width="1" fill="none" fill-rule="evenodd">
        <g id="ItemDoc">
            <g id="Group-Copy-2">
                <path d="M297.422101,48.2214598 L267.111426,16.1432472 C262.200012,10.945429 255.364549,8 248.213374,8 L65,8 C56.7157288,8 50,14.7157288 50,23 L50,330 C50,338.284271 56.7157288,345 65,345 L318,345 C326.284271,345 333,338.284271 333,330 L333,102.708004 C333,96.9063881 331.059591,91.2714466 327.487551,86.6998735 L297.422101,48.2214598 Z" id="Rectangle-14-Copy" stroke="#2D84C7" stroke-width="16"></path>
                <rect id="Rectangle-15-Copy" fill="#2D84C7" x="0" y="72" width="157" height="75"></rect>
                <path d="M215,6.25210084 C235.145658,13.1988796 246.260504,22.9243697 248.344538,35.4285714 C250.113849,46.0444374 249.629985,58.6631255 246.892946,73.2846356 L246.892948,73.284636 C246.08,77.627479 248.941546,81.8070734 253.284388,82.6200216 C253.336556,82.6297869 253.388819,82.6390328 253.44117,82.647758 L339,96.907563 L321.285714,71.8991597 L240.008403,0 L215,6.25210084 Z" id="Path-16-Copy" fill="#2D84C7"></path>
                <text id="DOC" font-family="AvenirNext-Bold, Avenir Next" font-size="60" font-weight="bold" fill="#FFFFFF">
                    <tspan x="7" y="130">DOC</tspan>
                </text>
                <path d="M235.337229,355.801598 C237.133717,357.695037 239.377754,358.642543 242.069865,358.642543 C244.764072,358.642543 247.005489,357.695037 248.8025,355.801598 L310.372627,296.189158 L310.372627,296.189158 C315.134004,291.579174 315.256732,283.982186 310.646748,279.220809 C308.411191,276.911836 305.342859,275.596111 302.129091,275.56837 L277.059036,275.35197 L279.840945,211.576201 C279.840945,208.983138 272.580166,200.416385 277,204.843565 C281.419834,209.270745 272.859379,202 270.267364,202 L212.160509,202.143069 C209.568494,202.143069 207.323933,203.091099 205.427874,204.986634 C203.533387,206.881646 202.585357,209.125683 202.585357,211.71927 L205.48691,275.352232 L182.890876,275.557741 L182.890876,275.557741 C176.263733,275.618014 170.940234,281.039236 171.000507,287.666379 C171.029441,290.847721 172.32053,293.887369 174.589936,296.117072 L235.337229,355.801598 Z" id="Shape-Copy" stroke="#FFFFFF" stroke-width="14" fill="#2D84C7" fill-rule="nonzero"></path>
            </g>
        </g>
    </g>
</svg>