<?xml version="1.0" encoding="UTF-8"?>
<svg width="341px" height="368px" viewBox="0 0 341 368" version="1.1" xmlns="http://www.w3.org/2000/svg" xmlns:xlink="http://www.w3.org/1999/xlink">
    <!-- Generator: Sketch 47.1 (45422) - http://www.bohemiancoding.com/sketch -->
    <title>ItemRAR</title>
    <desc>Created with Sketch.</desc>
    <defs></defs>
    <g id="Page-1" stroke="none" stroke-width="1" fill="none" fill-rule="evenodd">
        <g id="ItemRAR">
            <g id="Group-3-Copy-6">
                <path d="M297.422101,48.2214598 L267.111426,16.1432472 C262.200012,10.945429 255.364549,8 248.213374,8 L65,8 C56.7157288,8 50,14.7157288 50,23 L50,330 C50,338.284271 56.7157288,345 65,345 L318,345 C326.284271,345 333,338.284271 333,330 L333,102.708004 C333,96.9063881 331.059591,91.2714466 327.487551,86.6998735 L297.422101,48.2214598 Z" id="Rectangle-14" stroke="#7D53AD" stroke-width="16"></path>
                <rect id="Rectangle-15" fill="#7D53AD" x="0" y="72" width="157" height="75"></rect>
                <path d="M215,6.25806452 C235.145658,13.2114695 246.260504,22.9462366 248.344538,35.4623656 C250.114235,46.0906781 249.629774,58.7245988 246.891153,73.3641276 L246.891153,73.3641276 C246.078718,77.7070678 248.940758,81.8863252 253.283698,82.6987602 C253.335151,82.7083855 253.386697,82.7175056 253.438329,82.7261191 L339,97 L321.285714,71.9677419 L240.008403,0 L215,6.25806452 Z" id="Path-16" fill="#7D53AD"></path>
                <text id="RAR" font-family="AvenirNext-Bold, Avenir Next" font-size="64" font-weight="bold" fill="#FFFFFF">
                    <tspan x="14" y="130">RAR</tspan>
                </text>
                <path d="M235.325748,356.152572 C237.121915,358.050332 239.365552,359 242.057182,359 C244.750909,359 246.991926,358.050332 248.788616,356.152572 L310.406393,296.347184 L310.406393,296.347184 C315.162104,291.731355 315.2755,284.134222 310.659672,279.378511 C308.424901,277.076017 305.361097,275.764422 302.152529,275.736658 L277.04011,275.519359 L279.821522,211.598053 C279.821522,208.999073 272.562039,200.412772 276.981084,204.850054 C281.400129,209.287336 272.841202,202 270.24965,202 L212.153164,202.143396 C209.561612,202.143396 207.317451,203.093589 205.42173,204.99345 C203.527581,206.892785 202.57972,209.141943 202.57972,211.741449 L205.480756,275.519621 L182.842769,275.726018 L182.842769,275.726018 C176.215627,275.78644 170.892249,281.207781 170.95267,287.834922 C170.981628,291.011062 172.268627,294.046167 174.531586,296.275007 L235.325748,356.152572 Z" id="Shape" stroke="#FFFFFF" stroke-width="14" fill="#7D53AD" fill-rule="nonzero"></path>
            </g>
        </g>
    </g>
</svg>