<?xml version="1.0" encoding="UTF-8"?>
<svg width="301px" height="368px" viewBox="0 0 301 368" version="1.1" xmlns="http://www.w3.org/2000/svg" xmlns:xlink="http://www.w3.org/1999/xlink">
    <!-- Generator: Sketch 47.1 (45422) - http://www.bohemiancoding.com/sketch -->
    <title>ItemDefault</title>
    <desc>Created with Sketch.</desc>
    <defs></defs>
    <g id="Page-1" stroke="none" stroke-width="1" fill="none" fill-rule="evenodd">
        <g id="ItemDefault">
            <g id="Group-3-Copy-6">
                <path d="M255.422101,48.2214598 L225.111426,16.1432472 C220.200012,10.945429 213.364549,8 206.213374,8 L23,8 C14.7157288,8 8,14.7157288 8,23 L8,330 C8,338.284271 14.7157288,345 23,345 L276,345 C284.284271,345 291,338.284271 291,330 L291,102.708004 C291,96.9063881 289.059591,91.2714466 285.487551,86.6998735 L255.422101,48.2214598 Z" id="Rectangle-14" stroke="#A7BEC3" stroke-width="16"></path>
                <path d="M173,6.25806452 C193.145658,13.2114695 204.260504,22.9462366 206.344538,35.4623656 C208.114235,46.0906781 207.629774,58.7245988 204.891153,73.3641276 L204.891153,73.3641276 C204.078718,77.7070678 206.940758,81.8863252 211.283698,82.6987602 C211.335151,82.7083855 211.386697,82.7175056 211.438329,82.7261191 L297,97 L279.285714,71.9677419 L198.008403,0 L173,6.25806452 Z" id="Path-16" fill="#A7BEC3"></path>
                <path d="M193.325748,356.152572 C195.121915,358.050332 197.365552,359 200.057182,359 C202.750909,359 204.991926,358.050332 206.788616,356.152572 L268.406393,296.347184 L268.406393,296.347184 C273.162104,291.731355 273.2755,284.134222 268.659672,279.378511 C266.424901,277.076017 263.361097,275.764422 260.152529,275.736658 L235.04011,275.519359 L237.821522,211.598053 C237.821522,208.999073 230.562039,200.412772 234.981084,204.850054 C239.400129,209.287336 230.841202,202 228.24965,202 L170.153164,202.143396 C167.561612,202.143396 165.317451,203.093589 163.42173,204.99345 C161.527581,206.892785 160.57972,209.141943 160.57972,211.741449 L163.480756,275.519621 L140.842769,275.726018 L140.842769,275.726018 C134.215627,275.78644 128.892249,281.207781 128.95267,287.834922 C128.981628,291.011062 130.268627,294.046167 132.531586,296.275007 L193.325748,356.152572 Z" id="Shape" stroke="#FFFFFF" stroke-width="14" fill="#A7BEC3" fill-rule="nonzero"></path>
            </g>
        </g>
    </g>
</svg>