<?xml version="1.0" encoding="UTF-8"?>
<svg width="341px" height="368px" viewBox="0 0 341 368" version="1.1" xmlns="http://www.w3.org/2000/svg" xmlns:xlink="http://www.w3.org/1999/xlink">
    <!-- Generator: Sketch 47.1 (45422) - http://www.bohemiancoding.com/sketch -->
    <title>ItemPDF</title>
    <desc>Created with Sketch.</desc>
    <defs></defs>
    <g id="Page-1" stroke="none" stroke-width="1" fill="none" fill-rule="evenodd">
        <g id="ItemPDF">
            <g id="Group-17-Copy-2">
                <g id="Group-16">
                    <g id="Group-15">
                        <g id="Group-14">
                            <path d="M297.422101,48.2214598 L267.111426,16.1432472 C262.200012,10.945429 255.364549,8 248.213374,8 L65,8 C56.7157288,8 50,14.7157288 50,23 L50,330 C50,338.284271 56.7157288,345 65,345 L318,345 C326.284271,345 333,338.284271 333,330 L333,102.708004 C333,96.9063881 331.059591,91.2714466 327.487551,86.6998735 L297.422101,48.2214598 Z" id="Rectangle-14" stroke="#E05644" stroke-width="16"></path>
                            <rect id="Rectangle-15" fill="#E05644" x="0" y="72" width="157" height="75"></rect>
                            <path d="M215,6.25210084 C235.145658,13.1988796 246.260504,22.9243697 248.344538,35.4285714 C250.113849,46.0444374 249.629985,58.6631255 246.892946,73.2846356 L246.892948,73.284636 C246.08,77.627479 248.941546,81.8070734 253.284388,82.6200216 C253.336556,82.6297869 253.388819,82.6390328 253.44117,82.647758 L339,96.907563 L321.285714,71.8991597 L240.008403,0 L215,6.25210084 Z" id="Path-16" fill="#E05644"></path>
                        </g>
                        <text id="PDF" font-family="AvenirNext-Bold, Avenir Next" font-size="64" font-weight="bold" fill="#FFFFFF">
                            <tspan x="15" y="130">PDF</tspan>
                        </text>
                    </g>
                </g>
                <path d="M235.337229,355.958033 C237.133717,357.851472 239.377754,358.798978 242.069865,358.798978 C244.764072,358.798978 247.005489,357.851472 248.8025,355.958033 L310.372627,296.345593 L310.372627,296.345593 C315.134004,291.735609 315.256732,284.138621 310.646748,279.377244 C308.411191,277.068271 305.342859,275.752546 302.129091,275.724805 L277.059036,275.508405 L279.840945,211.732636 C279.840945,209.139573 272.580166,200.57282 277,205 C281.419834,209.42718 272.859379,202.156435 270.267364,202.156435 L212.160509,202.299504 C209.568494,202.299504 207.323933,203.247534 205.427874,205.143069 C203.533387,207.03808 202.585357,209.282118 202.585357,211.875705 L205.48691,275.508667 L182.890876,275.714176 L182.890876,275.714176 C176.263733,275.774449 170.940234,281.195671 171.000507,287.822814 C171.029441,291.004156 172.32053,294.043804 174.589936,296.273507 L235.337229,355.958033 Z" id="Shape" stroke="#FFFFFF" stroke-width="14" fill="#E05644" fill-rule="nonzero"></path>
            </g>
        </g>
    </g>
</svg>