<?xml version="1.0" encoding="UTF-8"?>
<svg width="24px" height="24px" viewBox="0 0 24 24" version="1.1" xmlns="http://www.w3.org/2000/svg" xmlns:xlink="http://www.w3.org/1999/xlink">
    <!-- Generator: Sketch 48 (47235) - http://www.bohemiancoding.com/sketch -->
    <title>Local</title>
    <desc>Created with Sketch.</desc>
    <defs></defs>
    <g id="Page-1" stroke="none" stroke-width="1" fill="none" fill-rule="evenodd">
        <g id="Local" fill="#0CC8CC">
            <g id="Components-/-Location-Icon">
                <path d="M0,12 C0,5.372583 5.37112582,0 12,0 C18.627417,0 24,5.37112582 24,12 C24,18.627417 18.6288742,24 12,24 C5.372583,24 0,18.6288742 0,12 Z M12,12 C10.8956,12 10,11.1044 10,10 C10,8.8952 10.8956,8 12,8 C13.1044,8 14,8.8952 14,10 C14,11.1044 13.1044,12 12,12 Z M7,10.0017561 C7,10.9978049 7.327,11.9392195 7.82066667,12.7099024 C8.83966667,14.3000976 12,19 12,19 C12,19 15.1603333,14.3000976 16.1793333,12.7099024 C16.673,11.9392195 17,10.9978049 17,10.0017561 C17,7.24443902 14.768,5 12,5 C9.232,5 7,7.24443902 7,10.0017561 Z" id="Combined-Shape"></path>
            </g>
        </g>
    </g>
</svg>