<svg width="24" height="24" viewBox="0 0 24 24" fill="none" xmlns="http://www.w3.org/2000/svg">
<path fill-rule="evenodd" clip-rule="evenodd" d="M14.8278 2.23114C14.9006 2.29843 14.9591 2.37966 14.9999 2.47001L20.7099 14.72C20.7518 14.8099 20.7755 14.9072 20.7795 15.0062C20.7836 15.1053 20.768 15.2042 20.7336 15.2972C20.6992 15.3902 20.6466 15.4755 20.5791 15.548C20.5115 15.6206 20.4302 15.6791 20.3399 15.72L19.6499 16.08C19.4099 16.22 19.1599 16.36 18.8899 16.49C18.6578 16.5964 18.4053 16.651 18.1499 16.65C17.8129 16.6538 17.4818 16.5618 17.195 16.3848C16.9082 16.2078 16.6776 15.953 16.5299 15.65C16.3844 15.3393 16.1219 15.0986 15.7997 14.9806C15.4775 14.8626 15.1217 14.8768 14.8099 15.02L12.0899 16.28L13.5399 19.39C13.6189 19.5607 13.6635 19.7453 13.6711 19.9332C13.6787 20.1212 13.6491 20.3088 13.5841 20.4852C13.5191 20.6617 13.4199 20.8237 13.2922 20.9618C13.1645 21.0999 13.0108 21.2114 12.8399 21.29L11.5999 21.87C11.4103 21.9522 11.2065 21.9963 10.9999 22C10.7328 21.9956 10.4722 21.9165 10.2477 21.7715C10.0232 21.6266 9.84385 21.4217 9.72991 21.18L7.99991 18.18C7.50325 18.3779 6.97449 18.483 6.43991 18.49C5.90775 18.4862 5.38016 18.3915 4.87991 18.21C4.04448 17.9015 3.31908 17.3526 2.79516 16.6325C2.27124 15.9123 1.97225 15.0532 1.93589 14.1634C1.89953 13.2736 2.12742 12.3929 2.59083 11.6324C3.05425 10.8719 3.73244 10.2656 4.53991 9.89001L7.15991 8.68001L10.9999 6.88001C11.1555 6.80977 11.2958 6.70956 11.4127 6.5851C11.5296 6.46065 11.6208 6.31438 11.6812 6.15466C11.7416 5.99493 11.7699 5.82488 11.7645 5.65422C11.7591 5.48356 11.7202 5.31562 11.6499 5.16001C11.4505 4.73254 11.4289 4.24339 11.5899 3.80001C11.6683 3.58014 11.7902 3.37829 11.9483 3.20649C12.1063 3.03469 12.2973 2.89646 12.5099 2.80001L13.9999 2.11001C14.0889 2.0664 14.1858 2.04111 14.2848 2.03566C14.3838 2.03022 14.4829 2.04471 14.5761 2.07829C14.6694 2.11187 14.755 2.16385 14.8278 2.23114ZM3.99922 15.7527C4.35174 16.2332 4.83936 16.5978 5.39991 16.8C6.14639 17.0711 6.9699 17.0351 7.68991 16.7L7.99991 16.56L9.63991 15.81L7.10991 10.35L5.16991 11.25C4.62801 11.4979 4.17223 11.9016 3.86068 12.4096C3.54913 12.9176 3.39592 13.5069 3.42059 14.1023C3.44527 14.6977 3.64671 15.2722 3.99922 15.7527ZM9.37991 17.58L11.0499 20.51L12.2299 19.94L10.7599 16.94L9.37991 17.58ZM10.9999 15.17L14.1999 13.69C14.6002 13.5056 15.04 13.4231 15.4799 13.45L12.6699 7.39001C12.4083 7.74831 12.0657 8.03959 11.6699 8.24001L8.46991 9.72001L10.9999 15.17ZM18.2799 15.19C18.5099 15.08 18.7299 14.96 18.9399 14.84L19.0799 14.78L13.9999 3.78001L13.1399 4.16001C13.1062 4.17475 13.0763 4.19673 13.0521 4.22439C13.0279 4.25204 13.0101 4.28469 12.9999 4.32001C12.9853 4.35309 12.9778 4.38885 12.9778 4.42501C12.9778 4.46117 12.9853 4.49693 12.9999 4.53001L17.9199 15.05C17.934 15.0831 17.9546 15.1131 17.9804 15.1381C18.0063 15.1631 18.0369 15.1828 18.0704 15.1958C18.104 15.2088 18.1398 15.2151 18.1758 15.2141C18.2117 15.2131 18.2471 15.2049 18.2799 15.19ZM17.7792 5.88696C17.6514 5.79335 17.557 5.6612 17.5099 5.50994V5.48994C17.455 5.33121 17.455 5.15867 17.5099 4.99994L17.8999 3.94994C17.9489 3.80456 18.0414 3.67772 18.1648 3.58652C18.2881 3.49533 18.4365 3.44417 18.5899 3.43994C18.7419 3.44316 18.8897 3.49015 19.0156 3.57529C19.1416 3.66044 19.2403 3.7801 19.2999 3.91994C19.3651 4.09404 19.3651 4.28584 19.2999 4.45994L18.9299 5.51994C18.8797 5.6685 18.7842 5.7976 18.6569 5.88908C18.5295 5.98056 18.3767 6.02982 18.2199 6.02994C18.0615 6.03068 17.907 5.98056 17.7792 5.88696ZM21.4701 9.09005L20.3701 8.85005C20.1971 8.81335 20.0168 8.8381 19.8601 8.92005C19.7264 8.99306 19.6177 9.10456 19.5482 9.24007C19.4786 9.37559 19.4514 9.52888 19.4701 9.68005C19.4909 9.8317 19.5576 9.97335 19.6613 10.086C19.765 10.1986 19.9007 10.2768 20.0501 10.3101L21.1501 10.5501C21.1996 10.5598 21.2505 10.5598 21.3001 10.5501C21.4168 10.548 21.5321 10.5243 21.6401 10.4801C21.7852 10.4158 21.9063 10.3072 21.9858 10.1698C22.0653 10.0324 22.0991 9.87327 22.0825 9.7154C22.0658 9.55753 21.9994 9.40902 21.893 9.29125C21.7865 9.17348 21.6455 9.09253 21.4901 9.06005L21.4701 9.09005ZM19.2099 7.23211C19.1794 7.07986 19.197 6.92191 19.2601 6.78006L19.2701 6.76006C19.3419 6.60672 19.4611 6.48052 19.6101 6.40006L20.6101 5.88006C20.7486 5.80983 20.9052 5.78369 21.0589 5.80514C21.2127 5.8266 21.3562 5.89462 21.4701 6.00006C21.5829 6.10672 21.6599 6.24576 21.6903 6.39801C21.7208 6.55026 21.7032 6.70821 21.6401 6.85006C21.5681 7.01153 21.4451 7.14499 21.2901 7.23006L20.2901 7.75006C20.1513 7.81889 19.995 7.84426 19.8416 7.82285C19.6882 7.80144 19.5448 7.73425 19.4301 7.63006C19.3173 7.5234 19.2403 7.38436 19.2099 7.23211Z" fill="#233049"/>
</svg>
