<svg width="24" height="24" viewBox="0 0 24 24" fill="none" xmlns="http://www.w3.org/2000/svg">
<path d="M22.0001 3.17991V3.08991C21.9815 3.02665 21.9546 2.96613 21.9201 2.90991V2.82991C21.8705 2.76034 21.8097 2.69951 21.7401 2.64991C21.6678 2.60051 21.5861 2.56647 21.5001 2.54991C21.4737 2.54502 21.4465 2.54502 21.4201 2.54991C21.3639 2.54 21.3063 2.54 21.2501 2.54991C21.207 2.54425 21.1632 2.54425 21.1201 2.54991H21.0301L3.6601 10.5499C3.43317 10.656 3.24338 10.8279 3.11533 11.0433C2.98727 11.2586 2.92688 11.5074 2.94197 11.7575C2.95706 12.0075 3.04694 12.2473 3.19995 12.4457C3.35297 12.644 3.56206 12.7918 3.8001 12.8699L7.9201 14.1999C8.10973 14.2595 8.31525 14.2413 8.4915 14.1494C8.66775 14.0576 8.80033 13.8995 8.8601 13.7099C8.89118 13.6167 8.90339 13.5182 8.89601 13.4203C8.88864 13.3223 8.86183 13.2268 8.81715 13.1393C8.77247 13.0518 8.71081 12.9741 8.63577 12.9106C8.56074 12.8472 8.47382 12.7994 8.3801 12.7699L4.7901 11.6999L17.8601 5.69991L10.0001 13.6999C10.0001 13.6999 10.0001 13.6999 10.0001 13.7599C10.0001 13.8199 10.0001 13.7599 9.9501 13.8199C9.9001 13.8799 9.9501 13.8699 9.9501 13.8999C9.9501 13.9299 9.9501 13.9899 9.9501 14.0299C9.94518 14.0898 9.94518 14.15 9.9501 14.2099C9.9501 14.2099 9.9501 14.2599 9.9501 14.2899L10.4901 20.8399C10.4999 20.9829 10.5516 21.1199 10.6388 21.2337C10.7259 21.3475 10.8446 21.4331 10.9801 21.4799C11.0631 21.5119 11.1512 21.5288 11.2401 21.5299C11.4381 21.5256 11.6273 21.4471 11.7701 21.3099L15.1001 17.9599L16.5301 18.8799C16.8127 19.0638 17.1429 19.1611 17.4801 19.1599C17.6606 19.1334 17.8359 19.0794 18.0001 18.9999C18.2554 18.8852 18.4795 18.7109 18.6535 18.4916C18.8275 18.2724 18.9463 18.0146 19.0001 17.7399L22.0001 3.39991C22.0152 3.32735 22.0152 3.25247 22.0001 3.17991ZM11.6901 19.0699L11.4101 15.6499L13.6501 17.0899L11.6901 19.0699ZM17.5601 17.4299C17.5544 17.4695 17.5385 17.5069 17.514 17.5385C17.4894 17.57 17.4571 17.5947 17.4201 17.6099C17.383 17.6292 17.3419 17.6393 17.3001 17.6393C17.2583 17.6393 17.2172 17.6292 17.1801 17.6099L11.7201 14.0799L20.0001 5.59991L17.5601 17.4299Z" fill="#454545"/>
</svg>
