<?xml version="1.0" encoding="UTF-8"?>
<svg width="12px" height="18px" viewBox="0 0 12 18" version="1.1" xmlns="http://www.w3.org/2000/svg" xmlns:xlink="http://www.w3.org/1999/xlink">
    <!-- Generator: Sketch 47.1 (45422) - http://www.bohemiancoding.com/sketch -->
    <title>Pause</title>
    <desc>Created with Sketch.</desc>
    <defs></defs>
    <g id="Page-1" stroke="none" stroke-width="1" fill="none" fill-rule="evenodd">
        <g id="Pause" fill-rule="nonzero" fill="#A7BEC3">
            <g id="pause-button-copy">
                <path d="M4.61538462,17.351355 C4.61538462,17.7095549 4.33986449,18 4,18 L0.615384615,18 C0.275520128,18 0,17.7095885 0,17.351355 L0,0.648645015 C0,0.290411481 0.275520128,0 0.615384615,0 L4,0 C4.33986449,0 4.61538462,0.290411481 4.61538462,0.648645015 L4.61538462,17.351355 Z" id="Shape"></path>
                <path d="M12,17.351355 C12,17.7095549 11.7244799,18 11.3846154,18 L8,18 C7.66013551,18 7.38461538,17.7095885 7.38461538,17.351355 L7.38461538,0.648645015 C7.38461538,0.290411481 7.66013551,0 8,0 L11.3846154,0 C11.7244799,0 12,0.290411481 12,0.648645015 L12,17.351355 Z" id="Shape"></path>
            </g>
        </g>
    </g>
</svg>