<?xml version="1.0" encoding="UTF-8"?>
<svg width="24" height="24" viewBox="0 0 24 24" fill="none" xmlns="http://www.w3.org/2000/svg">
    <path fill-rule="evenodd" 
        fill="#505F79"
        clip-rule="evenodd" 
        d="M16.64 5.42H20.27C20.4689 5.42 20.6597 5.49902 20.8003 5.63967C20.941 5.78032 21.02 5.97109 21.02 6.17C21.02 6.36891 20.941 6.55968 20.8003 6.70033C20.6597 6.84098 20.4689 6.92 20.27 6.92H19.33V18.27C19.33 19.2575 18.9384 20.2048 18.241 20.904C17.5437 21.6032 16.5975 21.9974 15.61 22H8.41C7.42248 21.9974 6.4763 21.6032 5.77895 20.904C5.0816 20.2048 4.69 19.2575 4.69 18.27V6.92H3.75C3.55109 6.92 3.36032 6.84098 3.21967 6.70033C3.07902 6.55968 3 6.36891 3 6.17C3 5.97109 3.07902 5.78032 3.21967 5.63967C3.36032 5.49902 3.55109 5.42 3.75 5.42H7.48C7.80239 4.4502 8.41423 3.60247 9.2331 2.991C10.052 2.37952 11.0386 2.03366 12.06 2C13.0706 2.02699 14.0492 2.35967 14.8668 2.95416C15.6845 3.54864 16.3027 4.37701 16.64 5.33V5.42ZM13.8046 4.0457C13.2843 3.70701 12.6806 3.51821 12.06 3.5C11.4408 3.51891 10.8388 3.70811 10.3202 4.04683C9.80151 4.38555 9.38625 4.86067 9.12 5.42H15.01C14.7421 4.85989 14.325 4.3844 13.8046 4.0457ZM17.6639 19.1226C17.7749 18.8521 17.8313 18.5624 17.83 18.27V6.92H6.19V18.27C6.18999 18.8597 6.42357 19.4254 6.83961 19.8433C7.25566 20.2612 7.8203 20.4974 8.41 20.5H15.61C15.9024 20.5 16.1919 20.4423 16.4619 20.3301C16.7319 20.2179 16.977 20.0535 17.1833 19.8462C17.3896 19.639 17.5529 19.3931 17.6639 19.1226ZM10.1396 16.75C10.3378 16.7474 10.527 16.6675 10.6671 16.5274C10.8072 16.3873 10.8871 16.1981 10.8896 16V11.45C10.8896 11.251 10.8106 11.0603 10.67 10.9196C10.5293 10.779 10.3386 10.7 10.1396 10.7C9.94074 10.7 9.74997 10.779 9.60932 10.9196C9.46867 11.0603 9.38965 11.251 9.38965 11.45V16C9.39224 16.1981 9.47209 16.3873 9.61218 16.5274C9.75228 16.6675 9.94154 16.7474 10.1396 16.75ZM13.8799 16.75C14.078 16.7474 14.2673 16.6675 14.4073 16.5274C14.5474 16.3873 14.6273 16.1981 14.6299 16V11.45C14.6299 11.251 14.5509 11.0603 14.4102 10.9196C14.2696 10.779 14.0788 10.7 13.8799 10.7C13.681 10.7 13.4902 10.779 13.3496 10.9196C13.2089 11.0603 13.1299 11.251 13.1299 11.45V16C13.1325 16.1981 13.2123 16.3873 13.3524 16.5274C13.4925 16.6675 13.6818 16.7474 13.8799 16.75Z" 
        />
</svg>
