<?xml version="1.0" encoding="UTF-8"?>
<svg width="13px" height="15px" viewBox="0 0 13 15" version="1.1" xmlns="http://www.w3.org/2000/svg" xmlns:xlink="http://www.w3.org/1999/xlink">
    <!-- Generator: Sketch 47.1 (45422) - http://www.bohemiancoding.com/sketch -->
    <title>Trash</title>
    <desc>Created with Sketch.</desc>
    <defs></defs>
    <g id="Builder-/-Setup---2" stroke="none" stroke-width="1" fill="none" fill-rule="evenodd">
        <g id="Trash" fill-rule="nonzero" fill="#fff">
            <g id="Group-Copy-3" transform="translate(1.000000, 0.000000)">
                <path d="M10.4812875,1.7662318 L8.54367647,1.7662318 L8.54367647,0.464781529 C8.54367647,0.202817633 8.33924885,0 8.08582757,0 C8.06123702,0 8.04483708,0.00848544494 8.03683391,0.0169515167 C8.02862457,0.00848544494 8.01222463,0 8.00403403,0 L3.45015427,0 L3.41754181,0 L3.38474193,0 C3.13132065,0 2.93510236,0.202817633 2.93510236,0.464781529 L2.93510236,1.76625118 L0.98930075,1.76625118 C0.433258362,1.76625118 0,2.21408119 0,2.78882479 L0,3.53250235 L0,4.46204604 L0.858476067,4.46204604 L0.858476067,13.9858925 C0.858476067,14.5606554 1.28354383,15 1.83958622,15 L9.63102076,15 C10.1870631,15 10.6203028,14.5606554 10.6203028,13.9858925 L10.6203028,4.46204604 L11.4705882,4.46204604 L11.4705882,3.53250235 L11.4705882,2.78882479 C11.4705882,2.21408119 11.0371612,1.7662318 10.4812875,1.7662318 Z M3.83440023,0.929543685 L7.636188,0.929543685 L7.636188,1.7662318 L3.83440023,1.7662318 L3.83440023,0.929543685 L3.83440023,0.929543685 Z M9.7128143,13.9859118 C9.7128143,14.0452131 9.68822376,14.0704369 9.63102076,14.0704369 L1.83958622,14.0704369 C1.78238322,14.0704369 1.75779268,14.0451937 1.75779268,13.9859118 L1.75779268,4.46202667 L9.7128143,4.46202667 L9.7128143,13.9859118 L9.7128143,13.9859118 Z M10.5630998,3.53248298 L0.907488466,3.53248298 L0.907488466,2.78880541 C0.907488466,2.72965915 0.932079008,2.69577549 0.989282007,2.69577549 L10.4812875,2.69577549 C10.5385092,2.69577549 10.5630998,2.72965915 10.5630998,2.78880541 L10.5630998,3.53248298 Z" id="Shape"></path>
                <rect id="Rectangle-path" x="7.05882353" y="5.29411765" width="1" height="7.94117647"></rect>
                <rect id="Rectangle-path" x="5.29411765" y="5.29411765" width="1" height="7.94117647"></rect>
                <rect id="Rectangle-path" x="3.52941176" y="5.29411765" width="1" height="7.94117647"></rect>
            </g>
        </g>
    </g>
</svg>
