<svg width="23" height="23" viewBox="0 0 23 23" fill="none" xmlns="http://www.w3.org/2000/svg">
<rect width="23" height="23" rx="5" fill="#3F7DE8"/>
<path d="M12.8633 12.25C12.6367 12.5195 12.3652 12.7363 12.0488 12.9004C11.7363 13.0645 11.3926 13.1465 11.0176 13.1465C10.5254 13.1465 10.0957 13.0254 9.72852 12.7832C9.36523 12.541 9.08398 12.2012 8.88477 11.7637C8.68555 11.3223 8.58594 10.8359 8.58594 10.3047C8.58594 9.73438 8.69336 9.2207 8.9082 8.76367C9.12695 8.30664 9.43555 7.95703 9.83398 7.71484C10.2324 7.47266 10.6973 7.35156 11.2285 7.35156C12.0723 7.35156 12.7363 7.66797 13.2207 8.30078C13.709 8.92969 13.9531 9.78906 13.9531 10.8789V11.1953C13.9531 12.8555 13.625 14.0684 12.9688 14.834C12.3125 15.5957 11.3223 15.9863 9.99805 16.0059H9.78711V15.0918H10.0156C10.9102 15.0762 11.5977 14.8438 12.0781 14.3945C12.5586 13.9414 12.8203 13.2266 12.8633 12.25ZM11.1934 12.25C11.5566 12.25 11.8906 12.1387 12.1953 11.916C12.5039 11.6934 12.7285 11.418 12.8691 11.0898V10.6562C12.8691 9.94531 12.7148 9.36719 12.4062 8.92188C12.0977 8.47656 11.707 8.25391 11.2344 8.25391C10.7578 8.25391 10.375 8.4375 10.0859 8.80469C9.79688 9.16797 9.65234 9.64844 9.65234 10.2461C9.65234 10.8281 9.79102 11.3086 10.0684 11.6875C10.3496 12.0625 10.7246 12.25 11.1934 12.25Z" fill="white"/>
</svg>
