<svg width="24" height="24" viewBox="0 0 24 24" fill="none" xmlns="http://www.w3.org/2000/svg">
<circle cx="12" cy="12" r="12" fill="#3F7DE8"/>
<path d="M19.6666 10.296C19.585 10.0508 19.4337 9.83465 19.2313 9.67403C19.0288 9.51342 18.784 9.41527 18.5266 9.39157L14.8026 9.07997L13.3358 5.60677C13.234 5.36859 13.0645 5.16554 12.8483 5.02284C12.6322 4.88014 12.3788 4.80407 12.1198 4.80407C11.8608 4.80407 11.6075 4.88014 11.3913 5.02284C11.1751 5.16554 11.0056 5.36859 10.9038 5.60677L9.43702 9.07997L5.71302 9.42197C5.45979 9.44639 5.21908 9.54375 5.02008 9.70225C4.82108 9.86075 4.67234 10.0736 4.59189 10.3149C4.51143 10.5563 4.50273 10.8158 4.56683 11.062C4.63094 11.3082 4.76509 11.5305 4.95302 11.702L7.77262 14.172L6.93662 17.8352C6.87883 18.0865 6.89711 18.3493 6.98914 18.5902C7.08116 18.8311 7.24278 19.0392 7.45342 19.188C7.66189 19.3374 7.90912 19.4234 8.16532 19.4355C8.42152 19.4476 8.67577 19.3854 8.89742 19.2564L12.1198 17.326L15.3346 19.2488C15.5397 19.3689 15.7733 19.4319 16.011 19.4312C16.283 19.4284 16.5479 19.3436 16.771 19.188C16.9807 19.0347 17.1412 18.8238 17.2329 18.5808C17.3247 18.3379 17.3438 18.0735 17.2878 17.82L16.4518 14.1644L19.2714 11.6944C19.4658 11.5247 19.6067 11.3022 19.6769 11.0539C19.7471 10.8056 19.7435 10.5423 19.6666 10.296Z" fill="white"/>
</svg>
